<svg xmlns="http://www.w3.org/2000/svg" width="45.326" height="40.842" viewBox="0 0 45.326 40.842">
  <path id="Icon_awesome-behance-square" data-name="Icon awesome-behance-square" d="M18.869,26.044c0,1.759-1.416,2.316-3.157,2.316H11.149V23.537H15.8C17.685,23.546,18.869,24.248,18.869,26.044Zm-.779-7.5c0-1.614-1.386-2-2.924-2H11.159v4.084h4.32C17.007,20.629,18.09,20.027,18.09,18.541Zm13.385,2.115a2.9,2.9,0,0,0-3.207,2.708h6.293A2.761,2.761,0,0,0,31.475,20.656ZM45.326,6.626v32.09a4.636,4.636,0,0,1-4.856,4.376H4.856A4.636,4.636,0,0,1,0,38.716V6.626A4.636,4.636,0,0,1,4.856,2.25H40.469A4.636,4.636,0,0,1,45.326,6.626ZM27.489,16.2H35.36V14.475H27.489Zm-4.35,10.056a4.573,4.573,0,0,0-3.541-4.7c1.74-.748,2.651-1.614,2.651-3.373,0-3.483-2.883-4.33-6.212-4.33H6.88v17.5H16.3C19.83,31.332,23.138,29.809,23.138,26.254ZM38.446,24.9a6.515,6.515,0,0,0-6.839-6.874c-4.29,0-7.193,2.9-7.193,6.71,0,3.947,2.762,6.655,7.193,6.655,3.359,0,5.534-1.358,6.586-4.267h-3.41c-.374,1.085-1.882,1.65-3.055,1.65-2.266,0-3.45-1.194-3.45-3.218H38.416C38.426,25.351,38.446,25.123,38.446,24.9Z" transform="translate(0 -2.25)" fill="#fff"/>
</svg>
