<svg xmlns="http://www.w3.org/2000/svg" width="80.421" height="78.806" viewBox="0 0 80.421 78.806">
  <path id="Icon_ionic-ios-heart-empty" data-name="Icon ionic-ios-heart-empty" d="M62.144,3.938h-.193A21.9,21.9,0,0,0,43.585,14.182,21.9,21.9,0,0,0,25.22,3.938h-.193A22.073,22.073,0,0,0,3.375,26.2c0,7.29,3.132,17.633,9.241,26.144,11.638,16.214,30.97,30.4,30.97,30.4s19.332-14.185,30.97-30.4C80.664,43.833,83.8,33.49,83.8,26.2A22.073,22.073,0,0,0,62.144,3.938Zm8.042,45.156C61.951,60.579,49.4,71.179,43.585,75.809c-5.819-4.63-18.365-15.249-26.6-26.735-5.664-7.881-8.2-17.16-8.2-22.873a16.833,16.833,0,0,1,4.756-11.781A16.175,16.175,0,0,1,25.065,9.474h.174A15.972,15.972,0,0,1,33.185,11.6a17.027,17.027,0,0,1,5.877,5.615,5.375,5.375,0,0,0,9.086,0A17.2,17.2,0,0,1,54.025,11.6,15.972,15.972,0,0,1,61.97,9.474h.174a16.209,16.209,0,0,1,11.522,4.945A16.784,16.784,0,0,1,78.422,26.2C78.383,31.914,75.85,41.193,70.186,49.093Z" transform="translate(-3.375 -3.938)" fill="#f70e0e"/>
</svg>
