<svg xmlns="http://www.w3.org/2000/svg" width="45.799" height="41.311" viewBox="0 0 45.799 41.311">
  <path id="Icon_awesome-dribbble-square" data-name="Icon awesome-dribbble-square" d="M9.221,20.342a12.966,12.966,0,0,1,7.739-8.825A80.987,80.987,0,0,1,22.143,18.8a57.473,57.473,0,0,1-12.922,1.54ZM32.161,13.5a15.034,15.034,0,0,0-12.533-2.822,67.5,67.5,0,0,1,5.214,7.377C29.81,16.368,31.905,13.823,32.161,13.5ZM14.322,32.865a15.2,15.2,0,0,0,14.036,1.66,48.066,48.066,0,0,0-2.985-9.553C19.74,26.7,15.784,30.172,14.322,32.865Zm10.1-9.977c-.348-.719-.736-1.429-1.135-2.139A56.428,56.428,0,0,1,8.935,22.537c0,.129-.01.258-.01.387a11.918,11.918,0,0,0,3.588,8.428A21.431,21.431,0,0,1,24.422,22.887Zm3.568,1.5A49.7,49.7,0,0,1,30.7,33.372a12.575,12.575,0,0,0,5.991-8.447,22.5,22.5,0,0,0-8.7-.535Zm-2.075-4.463c.491.9.848,1.641,1.227,2.471a36.019,36.019,0,0,1,9.732.406,11.772,11.772,0,0,0-3.159-7.847,18.638,18.638,0,0,1-7.8,4.97ZM45.8,6.676V39.135a4.686,4.686,0,0,1-4.907,4.426H4.907A4.686,4.686,0,0,1,0,39.135V6.676A4.686,4.686,0,0,1,4.907,2.25H40.891A4.686,4.686,0,0,1,45.8,6.676ZM39.256,22.906c0-8.133-7.34-14.754-16.357-14.754S6.543,14.773,6.543,22.906,13.883,37.66,22.9,37.66,39.256,31.039,39.256,22.906Z" transform="translate(0 -2.25)" fill="#f8f8f8"/>
</svg>
