<svg xmlns="http://www.w3.org/2000/svg" width="40.438" height="39.418" viewBox="0 0 40.438 39.418">
  <path id="Icon_awesome-instagram" data-name="Icon awesome-instagram" d="M20.218,11.841A10.222,10.222,0,0,0,9.853,21.947,10.222,10.222,0,0,0,20.218,32.053,10.222,10.222,0,0,0,30.584,21.947,10.222,10.222,0,0,0,20.218,11.841Zm0,16.677a6.573,6.573,0,1,1,6.739-6.57,6.668,6.668,0,0,1-6.739,6.57Zm13.207-17.09A2.418,2.418,0,1,1,31.008,9.07,2.383,2.383,0,0,1,33.425,11.427Zm6.865,2.392c-.153-3.158-.893-5.955-3.266-8.259s-5.232-3.026-8.471-3.184c-3.338-.185-13.342-.185-16.68,0-3.23.15-6.1.871-8.471,3.175S.3,10.653.137,13.811c-.189,3.254-.189,13.009,0,16.263.153,3.158.893,5.955,3.266,8.259s5.232,3.026,8.471,3.184c3.338.185,13.342.185,16.68,0,3.239-.15,6.107-.871,8.471-3.184s3.1-5.1,3.266-8.259c.189-3.254.189-13,0-16.255ZM35.978,33.566a6.74,6.74,0,0,1-3.843,3.747c-2.661,1.029-8.976.792-11.917.792s-9.265.229-11.917-.792a6.74,6.74,0,0,1-3.843-3.747c-1.055-2.595-.812-8.752-.812-11.619s-.235-9.033.812-11.619A6.74,6.74,0,0,1,8.3,6.581c2.661-1.029,8.976-.792,11.917-.792s9.265-.229,11.917.792a6.74,6.74,0,0,1,3.843,3.747c1.055,2.595.812,8.752.812,11.619S37.034,30.98,35.978,33.566Z" transform="translate(0.005 -2.238)" fill="#fff"/>
</svg>
